<svg fill="none" height="24" viewBox="0 0 24 24" width="24" xmlns="http://www.w3.org/2000/svg" ><g stroke="#141b34" stroke-width="1.5"><path d="m4 7c0-1.41421 0-2.12132.43934-2.56066s1.14645-.43934 2.56066-.43934 2.12132 0 2.56066.43934.43934 1.14645.43934 2.56066v10c0 1.4142 0 2.1213-.43934 2.5607-.43934.4393-1.14645.4393-2.56066.4393s-2.12132 0-2.56066-.4393c-.43934-.4394-.43934-1.1465-.43934-2.5607z"/><path d="m14 7c0-1.41421 0-2.12132.4393-2.56066.4394-.43934 1.1465-.43934 2.5607-.43934s2.1213 0 2.5607.43934c.4393.43934.4393 1.14645.4393 2.56066v10c0 1.4142 0 2.1213-.4393 2.5607-.4394.4393-1.1465.4393-2.5607.4393s-2.1213 0-2.5607-.4393c-.4393-.4394-.4393-1.1465-.4393-2.5607z"/></g></svg>